<?xml version="1.0" encoding="utf-8"?>
<!-- Generator: Adobe Illustrator 21.0.0, SVG Export Plug-In . SVG Version: 6.00 Build 0)  -->
<svg version="1.1" id="Layer_1" xmlns="http://www.w3.org/2000/svg" xmlns:xlink="http://www.w3.org/1999/xlink" x="0px" y="0px"
	 viewBox="0 0 35 35" style="enable-background:new 0 0 35 35;" xml:space="preserve">
<style type="text/css">
	.st0{fill:url(#SVGID_1_);}
	.st1{opacity:0.5;}
	.st2{fill:#FFFFFF;}
	.st3{opacity:0.7;}
</style>
<g>
	<g>
		
			<linearGradient id="SVGID_1_" gradientUnits="userSpaceOnUse" x1="-402.9781" y1="-280.3511" x2="-402.8834" y2="-280.3511" gradientTransform="matrix(360 0 0 -360 145072.5 -100908.8672)">
			<stop  offset="0" style="stop-color:#EF5037"/>
			<stop  offset="1" style="stop-color:#EC1A75"/>
		</linearGradient>
		<path class="st0" d="M24.5,34.6H10.3c-5.5,0-10-4.5-10-10V10.4c0-5.5,4.5-10,10-10h24.2v24.2C34.5,30.2,30,34.6,24.5,34.6z"/>
	</g>
	<g class="st1">
		<path class="st2" d="M17.4,9h-5.7c-1.6,0-2.9,1.3-2.9,2.9v11.3c0,1.6,1.3,2.9,2.9,2.9h5.7V9"/>
	</g>
	<g class="st3">
		<path class="st2" d="M26,17.5H8.9v5.7c0,1.6,1.3,2.9,2.9,2.9h11.3c1.6,0,2.9-1.3,2.9-2.9V17.5"/>
	</g>
	<g>
		<path class="st2" d="M23.1,26.1h-5.7v-8.5H26v5.7C26,24.8,24.7,26.1,23.1,26.1z"/>
	</g>
</g>
</svg>
