<?xml version="1.0" encoding="utf-8"?>
<!-- Generator: Adobe Illustrator 21.0.0, SVG Export Plug-In . SVG Version: 6.00 Build 0)  -->
<svg version="1.1" id="Layer_1" xmlns="http://www.w3.org/2000/svg" xmlns:xlink="http://www.w3.org/1999/xlink" x="0px" y="0px"
	 viewBox="0 0 300 89.3" style="enable-background:new 0 0 300 89.3;" xml:space="preserve">
<style type="text/css">
	.st0{fill:#FFFFFF;}
	.st1{opacity:0.5;}
	.st2{fill:url(#SVGID_1_);}
	.st3{opacity:0.7;}
	.st4{fill:url(#SVGID_2_);}
	.st5{fill:url(#SVGID_3_);}
</style>
<g>
	<path class="st0" d="M111,66.8c-2.1,0-3.8-0.3-5.2-0.7c-1.4-0.4-2.5-1-3.3-1.8c-0.8-0.8-1.4-1.8-1.7-3c-0.3-1.2-0.5-2.5-0.5-4.1
		V22.1l7.1-1.2v34.9c0,0.9,0.1,1.6,0.2,2.2c0.1,0.6,0.4,1.1,0.7,1.5c0.4,0.4,0.8,0.7,1.4,0.9c0.6,0.2,1.4,0.4,2.3,0.5L111,66.8z"/>
	<path class="st0" d="M127.8,35c2.3,0,4.3,0.3,5.9,0.9c1.6,0.6,2.9,1.4,3.8,2.4c1,1,1.6,2.3,2,3.8c0.4,1.5,0.6,3.1,0.6,4.9v18.5
		c-1.1,0.2-2.7,0.5-4.9,0.8c-2.2,0.3-4.7,0.5-7.4,0.5c-1.8,0-3.5-0.2-5-0.5c-1.5-0.3-2.8-0.9-3.9-1.7c-1.1-0.8-1.9-1.8-2.5-3
		c-0.6-1.2-0.9-2.8-0.9-4.6c0-1.7,0.3-3.2,1-4.4c0.7-1.2,1.6-2.2,2.8-2.9c1.2-0.8,2.5-1.3,4-1.6c1.5-0.3,3.1-0.5,4.8-0.5
		c0.8,0,1.6,0,2.4,0.1c0.9,0.1,1.8,0.3,2.7,0.5V47c0-0.8-0.1-1.6-0.3-2.3c-0.2-0.7-0.5-1.4-1-2c-0.5-0.6-1.1-1-1.9-1.3
		c-0.8-0.3-1.8-0.5-3-0.5c-1.6,0-3.1,0.1-4.5,0.3c-1.4,0.2-2.5,0.5-3.3,0.8l-0.9-5.7c0.9-0.3,2.2-0.6,3.9-0.9
		C124,35.1,125.9,35,127.8,35z M128.4,61.2c2.2,0,3.8-0.1,5-0.3v-7.8c-0.4-0.1-1-0.2-1.7-0.3c-0.7-0.1-1.6-0.2-2.4-0.2
		c-0.8,0-1.6,0.1-2.4,0.2c-0.8,0.1-1.5,0.3-2.2,0.6c-0.6,0.3-1.2,0.7-1.5,1.3c-0.4,0.6-0.6,1.3-0.6,2.1c0,1.7,0.5,2.8,1.6,3.5
		C125.2,60.9,126.6,61.2,128.4,61.2z"/>
	<path class="st0" d="M155.9,66.2c-2-4-4-8.6-6-13.8c-2-5.2-3.9-10.8-5.6-16.7h7.5c0.4,1.7,0.9,3.5,1.5,5.5c0.6,2,1.2,3.9,1.8,5.9
		c0.6,2,1.3,3.9,2,5.7c0.7,1.8,1.3,3.5,1.9,5c0.6-1.5,1.2-3.1,1.9-5c0.7-1.8,1.3-3.7,2-5.7c0.6-2,1.3-3.9,1.8-5.9
		c0.6-2,1.1-3.8,1.5-5.5h7.3c-1.7,5.9-3.5,11.5-5.6,16.7c-2,5.2-4,9.8-6,13.8H155.9z"/>
	<path class="st0" d="M188.8,35c2.3,0,4.3,0.3,5.9,0.9c1.6,0.6,2.9,1.4,3.8,2.4s1.6,2.3,2,3.8c0.4,1.5,0.6,3.1,0.6,4.9v18.5
		c-1.1,0.2-2.7,0.5-4.9,0.8c-2.2,0.3-4.7,0.5-7.4,0.5c-1.8,0-3.5-0.2-5-0.5s-2.8-0.9-3.9-1.7c-1.1-0.8-1.9-1.8-2.5-3
		c-0.6-1.2-0.9-2.8-0.9-4.6c0-1.7,0.3-3.2,1-4.4c0.7-1.2,1.6-2.2,2.8-2.9c1.2-0.8,2.5-1.3,4-1.6c1.5-0.3,3.1-0.5,4.8-0.5
		c0.8,0,1.6,0,2.4,0.1c0.9,0.1,1.8,0.3,2.7,0.5V47c0-0.8-0.1-1.6-0.3-2.3c-0.2-0.7-0.5-1.4-1-2c-0.5-0.6-1.1-1-1.9-1.3
		c-0.8-0.3-1.8-0.5-3-0.5c-1.6,0-3.1,0.1-4.5,0.3c-1.4,0.2-2.5,0.5-3.3,0.8l-0.9-5.7c0.9-0.3,2.2-0.6,3.9-0.9
		C185.1,35.1,186.9,35,188.8,35z M189.4,61.2c2.2,0,3.8-0.1,5-0.3v-7.8c-0.4-0.1-1-0.2-1.7-0.3c-0.7-0.1-1.6-0.2-2.4-0.2
		c-0.8,0-1.6,0.1-2.4,0.2c-0.8,0.1-1.5,0.3-2.2,0.6c-0.6,0.3-1.2,0.7-1.5,1.3c-0.4,0.6-0.6,1.3-0.6,2.1c0,1.7,0.5,2.8,1.6,3.5
		C186.2,60.9,187.6,61.2,189.4,61.2z"/>
	<path class="st0" d="M220.4,66.8c-2.1,0-3.8-0.3-5.2-0.7c-1.4-0.4-2.5-1-3.3-1.8s-1.4-1.8-1.7-3c-0.3-1.2-0.5-2.5-0.5-4.1V22.1
		l7.1-1.2v34.9c0,0.9,0.1,1.6,0.2,2.2c0.1,0.6,0.4,1.1,0.7,1.5c0.4,0.4,0.8,0.7,1.4,0.9c0.6,0.2,1.4,0.4,2.3,0.5L220.4,66.8z"/>
	<path class="st0" d="M235,26.8c0,1.3-0.4,2.4-1.3,3.1c-0.9,0.8-1.9,1.2-3,1.2c-1.2,0-2.2-0.4-3.1-1.2c-0.9-0.8-1.3-1.8-1.3-3.1
		c0-1.4,0.4-2.4,1.3-3.2c0.9-0.8,1.9-1.2,3.1-1.2c1.2,0,2.2,0.4,3,1.2C234.6,24.4,235,25.4,235,26.8z M234.3,66.2h-7.1V35.7h7.1
		V66.2z"/>
	<path class="st0" d="M242.9,27.7l7.1-1.2v9.2h10.8v5.9h-10.8V54c0,2.4,0.4,4.2,1.2,5.2s2.1,1.6,4,1.6c1.3,0,2.4-0.1,3.4-0.4
		c1-0.3,1.8-0.5,2.4-0.8l1.2,5.6c-0.8,0.4-1.9,0.7-3.2,1.1c-1.3,0.4-2.9,0.6-4.7,0.6c-2.2,0-4-0.3-5.5-0.9c-1.5-0.6-2.6-1.4-3.5-2.5
		c-0.9-1.1-1.5-2.4-1.8-4c-0.4-1.6-0.5-3.4-0.5-5.4V27.7z"/>
	<path class="st0" d="M265.4,51.1c0-2.7,0.4-5,1.2-7.1c0.8-2,1.9-3.7,3.2-5c1.3-1.3,2.8-2.4,4.5-3c1.7-0.7,3.5-1,5.2-1
		c4.2,0,7.5,1.3,9.8,3.9c2.4,2.6,3.5,6.5,3.5,11.7c0,0.4,0,0.8,0,1.3c0,0.5,0,0.9-0.1,1.3h-20.1c0.2,2.4,1.1,4.3,2.6,5.7
		c1.5,1.3,3.8,2,6.7,2c1.7,0,3.3-0.2,4.7-0.5c1.4-0.3,2.5-0.6,3.4-1l0.9,5.8c-0.4,0.2-0.9,0.4-1.6,0.6c-0.7,0.2-1.5,0.4-2.3,0.6
		c-0.9,0.2-1.8,0.3-2.8,0.4c-1,0.1-2,0.2-3.1,0.2c-2.7,0-5-0.4-7-1.2s-3.6-1.9-4.9-3.3c-1.3-1.4-2.2-3.1-2.9-5
		C265.7,55.5,265.4,53.4,265.4,51.1z M285.8,48c0-1-0.1-1.9-0.4-2.8c-0.3-0.9-0.7-1.6-1.2-2.3c-0.5-0.6-1.2-1.1-1.9-1.5
		c-0.8-0.4-1.7-0.6-2.7-0.6c-1.1,0-2,0.2-2.9,0.6c-0.8,0.4-1.5,0.9-2.1,1.6c-0.6,0.7-1,1.4-1.3,2.3c-0.3,0.9-0.5,1.7-0.6,2.6H285.8z
		"/>
</g>
<g>
	<path class="st0" d="M59.7,81.4H28.4c-12.1,0-21.8-9.8-21.8-21.8V28.4c0-12.1,9.8-21.8,21.8-21.8h53.1v53.1
		C81.5,71.7,71.7,81.4,59.7,81.4z"/>
</g>
<g class="st1">
	<linearGradient id="SVGID_1_" gradientUnits="userSpaceOnUse" x1="9.5674" y1="70.953" x2="76.5131" y2="4.0074">
		<stop  offset="0" style="stop-color:#EF5037"/>
		<stop  offset="1" style="stop-color:#EC1A75"/>
	</linearGradient>
	<path class="st2" d="M44.1,25.3H31.6c-3.5,0-6.3,2.8-6.3,6.3v24.9c0,3.5,2.8,6.3,6.3,6.3h12.4V25.3"/>
</g>
<g class="st3">
	<linearGradient id="SVGID_2_" gradientUnits="userSpaceOnUse" x1="17.0929" y1="78.4785" x2="83.4743" y2="12.0971">
		<stop  offset="0" style="stop-color:#EF5037"/>
		<stop  offset="1" style="stop-color:#EC1A75"/>
	</linearGradient>
	<path class="st4" d="M62.8,44H25.3v12.4c0,3.5,2.8,6.3,6.3,6.3h24.9c3.5,0,6.3-2.8,6.3-6.3V44"/>
</g>
<g>
	<linearGradient id="SVGID_3_" gradientUnits="userSpaceOnUse" x1="21.6058" y1="83.3292" x2="88.5127" y2="16.4223">
		<stop  offset="0" style="stop-color:#EF5037"/>
		<stop  offset="1" style="stop-color:#EC1A75"/>
	</linearGradient>
	<path class="st5" d="M56.5,62.7H44.1V44h18.7v12.4C62.8,59.9,60,62.7,56.5,62.7z"/>
</g>
</svg>
