<?xml version="1.0" encoding="utf-8"?>
<!-- Generator: Adobe Illustrator 21.0.0, SVG Export Plug-In . SVG Version: 6.00 Build 0)  -->
<svg version="1.1" id="Layer_1" xmlns="http://www.w3.org/2000/svg" xmlns:xlink="http://www.w3.org/1999/xlink" x="0px" y="0px"
	 viewBox="0 0 135.2 36" style="enable-background:new 0 0 135.2 36;" xml:space="preserve">
<style type="text/css">
	.st0{fill:#FFFFFF;}
	.st1{opacity:0.5;}
	.st2{fill:url(#SVGID_1_);}
	.st3{opacity:0.7;}
	.st4{fill:url(#SVGID_2_);}
	.st5{fill:url(#SVGID_3_);}
</style>
<g>
	<path class="st0" d="M49.4,28.5c-1,0-1.8-0.1-2.4-0.3c-0.6-0.2-1.2-0.5-1.5-0.9c-0.4-0.4-0.7-0.8-0.8-1.4c-0.2-0.6-0.2-1.2-0.2-1.9
		V7.6l3.3-0.5v16.3c0,0.4,0,0.7,0.1,1s0.2,0.5,0.3,0.7c0.2,0.2,0.4,0.3,0.7,0.4s0.6,0.2,1.1,0.2L49.4,28.5z"/>
	<path class="st0" d="M57.3,13.6c1.1,0,2,0.1,2.8,0.4c0.7,0.3,1.3,0.7,1.8,1.1c0.4,0.5,0.8,1.1,1,1.8c0.2,0.7,0.3,1.5,0.3,2.3v8.6
		c-0.5,0.1-1.3,0.2-2.3,0.4c-1,0.2-2.2,0.2-3.5,0.2c-0.9,0-1.6-0.1-2.3-0.2c-0.7-0.2-1.3-0.4-1.8-0.8s-0.9-0.8-1.2-1.4
		s-0.4-1.3-0.4-2.2c0-0.8,0.2-1.5,0.5-2.1s0.8-1,1.3-1.4s1.2-0.6,1.9-0.8c0.7-0.2,1.5-0.2,2.3-0.2c0.4,0,0.7,0,1.1,0.1
		c0.4,0,0.8,0.1,1.3,0.2v-0.5c0-0.4,0-0.7-0.1-1.1c-0.1-0.3-0.3-0.7-0.5-0.9c-0.2-0.3-0.5-0.5-0.9-0.6s-0.8-0.2-1.4-0.2
		c-0.8,0-1.5,0.1-2.1,0.2s-1.2,0.2-1.6,0.4l-0.4-2.7c0.4-0.1,1-0.3,1.8-0.4S56.4,13.6,57.3,13.6z M57.6,26c1,0,1.8-0.1,2.3-0.2v-3.7
		c-0.2-0.1-0.4-0.1-0.8-0.2c-0.3-0.1-0.7-0.1-1.1-0.1c-0.4,0-0.7,0-1.1,0.1c-0.4,0.1-0.7,0.2-1,0.3c-0.3,0.1-0.5,0.4-0.7,0.6
		c-0.2,0.3-0.3,0.6-0.3,1c0,0.8,0.2,1.3,0.7,1.6S56.8,26,57.6,26z"/>
	<path class="st0" d="M70.5,28.3c-0.9-1.9-1.8-4-2.8-6.5c-1-2.4-1.8-5-2.6-7.8h3.5c0.2,0.8,0.4,1.7,0.7,2.6c0.3,0.9,0.5,1.8,0.8,2.8
		c0.3,0.9,0.6,1.8,0.9,2.7c0.3,0.9,0.6,1.6,0.9,2.3c0.3-0.7,0.6-1.5,0.9-2.3c0.3-0.9,0.6-1.8,0.9-2.7c0.3-0.9,0.6-1.8,0.9-2.8
		c0.3-0.9,0.5-1.8,0.7-2.6h3.4c-0.8,2.8-1.7,5.4-2.6,7.8c-1,2.4-1.9,4.6-2.8,6.5H70.5z"/>
	<path class="st0" d="M85.9,13.6c1.1,0,2,0.1,2.8,0.4c0.7,0.3,1.3,0.7,1.8,1.1s0.8,1.1,1,1.8c0.2,0.7,0.3,1.5,0.3,2.3v8.6
		c-0.5,0.1-1.3,0.2-2.3,0.4c-1,0.2-2.2,0.2-3.5,0.2c-0.9,0-1.6-0.1-2.3-0.2c-0.7-0.2-1.3-0.4-1.8-0.8S81,26.6,80.7,26
		c-0.3-0.6-0.4-1.3-0.4-2.2c0-0.8,0.2-1.5,0.5-2.1s0.8-1,1.3-1.4s1.2-0.6,1.9-0.8c0.7-0.2,1.5-0.2,2.3-0.2c0.4,0,0.7,0,1.1,0.1
		c0.4,0,0.8,0.1,1.3,0.2v-0.5c0-0.4,0-0.7-0.1-1.1c-0.1-0.3-0.3-0.7-0.5-0.9c-0.2-0.3-0.5-0.5-0.9-0.6s-0.8-0.2-1.4-0.2
		c-0.8,0-1.5,0.1-2.1,0.2s-1.2,0.2-1.6,0.4l-0.4-2.7c0.4-0.1,1-0.3,1.8-0.4C84.1,13.7,85,13.6,85.9,13.6z M86.2,26
		c1,0,1.8-0.1,2.3-0.2v-3.7c-0.2,0-0.5-0.1-0.8-0.1c-0.3-0.1-0.7-0.1-1.1-0.1s-0.7,0-1.1,0.1s-0.7,0.2-1,0.3
		c-0.3,0.1-0.5,0.4-0.7,0.6c-0.2,0.3-0.3,0.6-0.3,1c0,0.8,0.2,1.3,0.7,1.6S85.3,26,86.2,26z"/>
	<path class="st0" d="M100.7,28.5c-1,0-1.8-0.1-2.4-0.3c-0.6-0.2-1.2-0.5-1.5-0.9c-0.4-0.4-0.7-0.8-0.8-1.4
		c-0.2-0.6-0.2-1.2-0.2-1.9V7.6L99,7.1v16.3c0,0.4,0,0.7,0.1,1s0.2,0.5,0.3,0.7c0.2,0.2,0.4,0.3,0.7,0.4c0.3,0.1,0.6,0.2,1.1,0.2
		L100.7,28.5z"/>
	<path class="st0" d="M107.5,9.8c0,0.6-0.2,1.1-0.6,1.5s-0.9,0.5-1.4,0.5c-0.6,0-1-0.2-1.4-0.5c-0.4-0.4-0.6-0.9-0.6-1.5
		s0.2-1.1,0.6-1.5c0.4-0.4,0.9-0.5,1.4-0.5s1,0.2,1.4,0.5C107.3,8.7,107.5,9.2,107.5,9.8z M107.2,28.3h-3.3V14h3.3V28.3z"/>
	<path class="st0" d="M111.2,10.2l3.3-0.5V14h5.1v2.8h-5.1v5.8c0,1.1,0.2,2,0.5,2.5c0.4,0.5,1,0.7,1.9,0.7c0.6,0,1.1-0.1,1.6-0.2
		s0.8-0.2,1.1-0.4l0.5,2.6c-0.4,0.2-0.9,0.3-1.5,0.5s-1.3,0.3-2.2,0.3c-1,0-1.9-0.1-2.6-0.4s-1.2-0.7-1.6-1.2s-0.7-1.1-0.8-1.9
		c-0.2-0.7-0.2-1.6-0.2-2.5C111.2,22.6,111.2,10.2,111.2,10.2z"/>
	<path class="st0" d="M121.7,21.2c0-1.3,0.2-2.4,0.6-3.3s0.9-1.7,1.5-2.4c0.6-0.6,1.3-1.1,2.1-1.4c0.8-0.3,1.6-0.5,2.5-0.5
		c2,0,3.5,0.6,4.6,1.8s1.7,3,1.7,5.5c0,0.2,0,0.4,0,0.6s0,0.4,0,0.6h-9.4c0.1,1.1,0.5,2,1.2,2.7c0.7,0.6,1.8,0.9,3.1,0.9
		c0.8,0,1.5-0.1,2.2-0.2s1.2-0.3,1.6-0.5l0.4,2.7c-0.2,0.1-0.4,0.2-0.8,0.3c-0.3,0.1-0.7,0.2-1.1,0.3c-0.4,0.1-0.9,0.2-1.3,0.2
		c-0.5,0.1-1,0.1-1.4,0.1c-1.3,0-2.3-0.2-3.3-0.6c-0.9-0.4-1.7-0.9-2.3-1.6c-0.6-0.7-1-1.4-1.3-2.3
		C121.9,23.3,121.7,22.3,121.7,21.2z M131.3,19.7c0-0.5-0.1-0.9-0.2-1.3c-0.1-0.4-0.3-0.8-0.6-1.1c-0.2-0.3-0.5-0.5-0.9-0.7
		s-0.8-0.3-1.3-0.3s-1,0.1-1.3,0.3c-0.4,0.2-0.7,0.4-1,0.8c-0.3,0.3-0.5,0.7-0.6,1.1s-0.2,0.8-0.3,1.2H131.3z"/>
</g>
<g>
	<path class="st0" d="M25.4,35.4H10.8c-5.6,0-10.2-4.6-10.2-10.2V10.6C0.6,5,5.2,0.4,10.8,0.4h24.8v24.8
		C35.7,30.8,31.1,35.4,25.4,35.4z"/>
</g>
<g class="st1">
	
		<linearGradient id="SVGID_1_" gradientUnits="userSpaceOnUse" x1="1.9705" y1="6.7964" x2="33.3037" y2="38.1297" gradientTransform="matrix(1 0 0 -1 0 37.276)">
		<stop  offset="0" style="stop-color:#11D0F7"/>
		<stop  offset="1" style="stop-color:#5B5DF1"/>
	</linearGradient>
	<path class="st2" d="M18.1,9.1h-5.8c-1.6,0-2.9,1.3-2.9,2.9v11.7c0,1.6,1.3,2.9,2.9,2.9h5.8L18.1,9.1"/>
</g>
<g class="st3">
	
		<linearGradient id="SVGID_2_" gradientUnits="userSpaceOnUse" x1="5.5205" y1="3.2465" x2="36.5896" y2="34.3156" gradientTransform="matrix(1 0 0 -1 0 37.276)">
		<stop  offset="0" style="stop-color:#11D0F7"/>
		<stop  offset="1" style="stop-color:#5B5DF1"/>
	</linearGradient>
	<path class="st4" d="M26.9,17.9H9.4v5.8c0,1.6,1.3,2.9,2.9,2.9H24c1.6,0,2.9-1.3,2.9-2.9V17.9"/>
</g>
<g>
	
		<linearGradient id="SVGID_3_" gradientUnits="userSpaceOnUse" x1="7.6164" y1="0.9924" x2="38.9315" y2="32.3075" gradientTransform="matrix(1 0 0 -1 0 37.276)">
		<stop  offset="0" style="stop-color:#11D0F7"/>
		<stop  offset="1" style="stop-color:#5B5DF1"/>
	</linearGradient>
	<path class="st5" d="M24,26.6h-5.8v-8.8H27v5.8C26.9,25.3,25.6,26.6,24,26.6z"/>
</g>
</svg>
